# 3ds Max Wavefront OBJ Exporter v0.97b - (c)2007 guruware
# File Created: 05.08.2017 17:46:18

#
# object Cylinder002
#

v  -9.3297 3.3957 8.0280
v  -6.0896 2.2164 8.0276
v  -6.3744 -0.0000 8.0276
v  -9.7659 -0.0000 8.0280
v  -4.9642 8.5983 8.0280
v  -3.2402 5.6122 8.0276
v  -4.8830 4.0974 8.0276
v  -7.4811 6.2774 8.0280
v  1.7241 9.7776 8.0280
v  1.1253 6.3820 8.0276
v  -1.1069 6.2775 8.0276
v  -1.6958 9.6176 8.0280
v  7.6057 6.3819 8.0280
v  4.9643 4.1655 8.0276
v  3.1872 5.5204 8.0276
v  4.8830 8.4575 8.0280
v  9.9285 -0.0000 8.0280
v  6.4805 -0.0000 8.0276
v  5.9900 2.1801 8.0276
v  9.1770 3.3401 8.0280
v  7.6057 -6.3819 8.0280
v  4.9643 -4.1656 8.0276
v  5.9900 -2.1802 8.0276
v  9.1770 -3.3402 8.0280
v  1.7241 -9.7776 8.0280
v  1.1253 -6.3820 8.0276
v  3.1872 -5.5204 8.0276
v  4.8830 -8.4576 8.0280
v  -4.9642 -8.5983 8.0280
v  -3.2402 -5.6123 8.0276
v  -1.1069 -6.2776 8.0276
v  -1.6958 -9.6176 8.0280
v  -9.3297 -3.3958 8.0280
v  -6.0896 -2.2165 8.0276
v  -4.8830 -4.0974 8.0276
v  -7.4811 -6.2775 8.0280
v  -6.0896 2.2164 0.5071
v  -6.3744 -0.0000 0.5071
v  -3.2402 5.6122 0.5071
v  -4.8830 4.0974 0.5071
v  1.1253 6.3820 0.5071
v  -1.1069 6.2775 0.5071
v  4.9643 4.1655 0.5071
v  3.1872 5.5204 0.5071
v  6.4805 -0.0000 0.5071
v  5.9900 2.1801 0.5071
v  4.9643 -4.1656 0.5071
v  5.9900 -2.1802 0.5071
v  1.1253 -6.3820 0.5071
v  3.1872 -5.5204 0.5071
v  -3.2402 -5.6123 0.5071
v  -1.1069 -6.2776 0.5071
v  -6.0896 -2.2165 0.5071
v  -4.8830 -4.0974 0.5071
v  -4.8977 1.7826 0.5072
v  -5.1267 -0.0000 0.5072
v  -2.6060 4.5138 0.5072
v  -3.9273 3.2954 0.5072
v  0.9051 5.1329 0.5072
v  -0.8902 5.0488 0.5072
v  3.9927 3.3502 0.5072
v  2.5634 4.4399 0.5072
v  5.2121 -0.0000 0.5072
v  4.8176 1.7534 0.5072
v  3.9927 -3.3503 0.5072
v  4.8176 -1.7535 0.5072
v  0.9051 -5.1329 0.5072
v  2.5634 -4.4399 0.5072
v  -2.6060 -4.5138 0.5072
v  -0.8902 -5.0489 0.5072
v  -4.8977 -1.7827 0.5072
v  -3.9273 -3.2954 0.5072
v  -4.8956 1.7819 149.1960
v  -5.1246 -0.0000 149.1960
v  -2.6049 4.5118 149.1960
v  -3.9256 3.2940 149.1960
v  0.9047 5.1307 149.1960
v  -0.8899 5.0467 149.1960
v  3.9910 3.3488 149.1960
v  2.5623 4.4380 149.1960
v  5.2098 -0.0000 149.1960
v  4.8155 1.7527 149.1960
v  3.9910 -3.3488 149.1960
v  4.8155 -1.7527 149.1960
v  0.9047 -5.1307 149.1960
v  2.5623 -4.4380 149.1960
v  -2.6049 -4.5118 149.1960
v  -0.8899 -5.0467 149.1960
v  -4.8956 -1.7819 149.1960
v  -3.9256 -3.2940 149.1960
v  -7.4811 6.2774 149.1960
v  -9.3297 3.3957 149.1960
v  -1.6958 9.6176 149.1960
v  -4.9642 8.5983 149.1960
v  4.8830 8.4576 149.1960
v  1.7241 9.7776 149.1960
v  9.1770 3.3401 149.1960
v  7.6056 6.3819 149.1960
v  9.1770 -3.3402 149.1960
v  9.9285 -0.0000 149.1960
v  4.8830 -8.4576 149.1960
v  7.6056 -6.3819 149.1960
v  -1.6958 -9.6176 149.1960
v  1.7241 -9.7776 149.1960
v  -7.4811 -6.2775 149.1960
v  -4.9642 -8.5983 149.1960
v  -9.7659 -0.0000 149.1960
v  -9.3297 -3.3957 149.1960
# 108 vertices

vn -0.0001 0.0000 -1.0000
vn -0.0001 -0.0000 -1.0000
vn -0.0001 0.0001 -1.0000
vn 0.0000 0.0001 -1.0000
vn -0.0000 0.0001 -1.0000
vn 0.0001 0.0001 -1.0000
vn 0.0001 -0.0000 -1.0000
vn 0.0001 0.0000 -1.0000
vn 0.0001 -0.0001 -1.0000
vn 0.0000 -0.0001 -1.0000
vn -0.0001 -0.0001 -1.0000
vn -0.0000 -0.0001 -1.0000
vn -0.9397 0.3420 -0.0000
vn -1.0000 -0.0000 -0.0000
vn -0.5000 0.8660 -0.0000
vn -0.7660 0.6428 -0.0000
vn 0.1736 0.9848 -0.0000
vn -0.1736 0.9848 -0.0000
vn 0.7660 0.6428 -0.0000
vn 0.5000 0.8660 -0.0000
vn 1.0000 0.0000 0.0000
vn 0.9397 0.3420 0.0000
vn 0.7660 -0.6428 0.0000
vn 0.9397 -0.3420 0.0000
vn 0.1736 -0.9848 0.0000
vn 0.5000 -0.8660 0.0000
vn -0.5000 -0.8660 0.0000
vn -0.1736 -0.9848 0.0000
vn -0.9397 -0.3420 -0.0000
vn -0.7660 -0.6428 -0.0000
vn -0.7660 -0.6428 0.0000
vn 0.9397 -0.3420 -0.0000
vn 1.0000 0.0000 -0.0000
vn 0.5000 -0.8660 -0.0000
vn 0.7660 -0.6428 -0.0000
vn -0.1736 -0.9848 -0.0000
vn 0.1736 -0.9848 -0.0000
vn -0.5000 -0.8660 -0.0000
vn 0.9397 0.3420 -0.0000
vn -0.0000 0.0000 1.0000
vn 0.0000 0.0000 1.0000
vn 0.0000 -0.0000 1.0000
vn -0.0000 -0.0000 1.0000
vn 0.7660 0.6428 0.0000
# 44 vertex normals

vt 0.1915 0.7149 0.0000
vt 0.1609 0.7266 0.0000
vt 0.1532 0.7047 0.0000
vt 0.1798 0.6815 0.0000
vt 0.1915 0.7819 0.0000
vt 0.1609 0.7703 0.0000
vt 0.1685 0.7484 0.0000
vt 0.2031 0.7484 0.0000
vt 0.1502 0.8332 0.0000
vt 0.1340 0.8037 0.0000
vt 0.1532 0.7921 0.0000
vt 0.1798 0.8154 0.0000
vt 0.0871 0.8448 0.0000
vt 0.0928 0.8113 0.0000
vt 0.1147 0.8154 0.0000
vt 0.1207 0.8510 0.0000
vt 0.0316 0.8113 0.0000
vt 0.0565 0.7895 0.0000
vt 0.0708 0.8073 0.0000
vt 0.0535 0.8386 0.0000
vt 0.0096 0.7484 0.0000
vt 0.0422 0.7484 0.0000
vt 0.0422 0.7717 0.0000
vt 0.0096 0.7840 0.0000
vt 0.0316 0.6855 0.0000
vt 0.0565 0.7073 0.0000
vt 0.0422 0.7252 0.0000
vt 0.0096 0.7128 0.0000
vt 0.0871 0.6520 0.0000
vt 0.0928 0.6855 0.0000
vt 0.0708 0.6895 0.0000
vt 0.0535 0.6582 0.0000
vt 0.1502 0.6636 0.0000
vt 0.1340 0.6931 0.0000
vt 0.1147 0.6815 0.0000
vt 0.1207 0.6458 0.0000
vt 0.1360 0.8812 0.0000
vt 0.1360 0.9644 0.0000
vt 0.1143 0.9644 0.0000
vt 0.1143 0.8812 0.0000
vt 0.1777 0.8812 0.0000
vt 0.1777 0.9644 0.0000
vt 0.1577 0.9644 0.0000
vt 0.1577 0.8812 0.0000
vt 0.2205 0.8812 0.0000
vt 0.2205 0.9644 0.0000
vt 0.1977 0.9644 0.0000
vt 0.1977 0.8812 0.0000
vt 0.2609 0.8812 0.0000
vt 0.2609 0.9644 0.0000
vt 0.2432 0.9644 0.0000
vt 0.2432 0.8812 0.0000
vt 0.3017 0.8812 0.0000
vt 0.3017 0.9644 0.0000
vt 0.2786 0.9644 0.0000
vt 0.2786 0.8812 0.0000
vt 0.3425 0.8812 0.0000
vt 0.3425 0.9644 0.0000
vt 0.3248 0.9644 0.0000
vt 0.3248 0.8812 0.0000
vt 0.3830 0.8812 0.0000
vt 0.3830 0.9644 0.0000
vt 0.3602 0.9644 0.0000
vt 0.3602 0.8812 0.0000
vt 0.4257 0.8812 0.0000
vt 0.4257 0.9644 0.0000
vt 0.4057 0.9644 0.0000
vt 0.4057 0.8812 0.0000
vt 0.0926 0.8812 0.0000
vt 0.0926 0.9644 0.0000
vt 0.0709 0.9644 0.0000
vt 0.0709 0.8812 0.0000
vt 0.5703 0.8001 0.0000
vt 0.5612 0.7921 0.0000
vt 0.5727 0.7778 0.0000
vt 0.5847 0.7823 0.0000
vt 0.5341 0.8220 0.0000
vt 0.5320 0.8097 0.0000
vt 0.5497 0.8064 0.0000
vt 0.5560 0.8179 0.0000
vt 0.4929 0.8144 0.0000
vt 0.4989 0.8036 0.0000
vt 0.5144 0.8129 0.0000
vt 0.5122 0.8260 0.0000
vt 0.4660 0.7809 0.0000
vt 0.4772 0.7766 0.0000
vt 0.4834 0.7942 0.0000
vt 0.4736 0.8028 0.0000
vt 0.4660 0.7372 0.0000
vt 0.4772 0.7415 0.0000
vt 0.4711 0.7591 0.0000
vt 0.4584 0.7591 0.0000
vt 0.4929 0.7037 0.0000
vt 0.4989 0.7146 0.0000
vt 0.4834 0.7239 0.0000
vt 0.4736 0.7154 0.0000
vt 0.5341 0.6962 0.0000
vt 0.5320 0.7085 0.0000
vt 0.5144 0.7052 0.0000
vt 0.5122 0.6921 0.0000
vt 0.5703 0.7180 0.0000
vt 0.5612 0.7260 0.0000
vt 0.5497 0.7117 0.0000
vt 0.5560 0.7002 0.0000
vt 0.5847 0.7591 0.0000
vt 0.5727 0.7591 0.0000
vt 0.5727 0.7404 0.0000
vt 0.5847 0.7358 0.0000
vt 0.0043 0.0557 0.0000
vt 0.9995 0.0557 0.0000
vt 0.9995 0.0674 0.0000
vt 0.0043 0.0674 0.0000
vt 0.0043 0.0338 0.0000
vt 0.9995 0.0338 0.0000
vt 0.9995 0.0439 0.0000
vt 0.0043 0.0439 0.0000
vt 0.0043 0.0121 0.0000
vt 0.9995 0.0121 0.0000
vt 0.9995 0.0236 0.0000
vt 0.0043 0.0236 0.0000
vt 0.0043 0.1773 0.0000
vt 0.9995 0.1773 0.0000
vt 0.9995 0.1862 0.0000
vt 0.0043 0.1863 0.0000
vt 0.0043 0.1565 0.0000
vt 0.9995 0.1565 0.0000
vt 0.9995 0.1683 0.0000
vt 0.0043 0.1683 0.0000
vt 0.0043 0.1358 0.0000
vt 0.9995 0.1358 0.0000
vt 0.9995 0.1448 0.0000
vt 0.0043 0.1448 0.0000
vt 0.0043 0.1151 0.0000
vt 0.9995 0.1151 0.0000
vt 0.9995 0.1268 0.0000
vt 0.0043 0.1268 0.0000
vt 0.0043 0.0944 0.0000
vt 0.9995 0.0944 0.0000
vt 0.9995 0.1034 0.0000
vt 0.0043 0.1034 0.0000
vt 0.0043 0.0764 0.0000
vt 0.9995 0.0764 0.0000
vt 0.9995 0.0854 0.0000
vt 0.0043 0.0854 0.0000
vt 0.3799 0.7139 0.0000
vt 0.4209 0.6891 0.0000
vt 0.4268 0.7242 0.0000
vt 0.3830 0.7323 0.0000
vt 0.3524 0.6898 0.0000
vt 0.3686 0.6433 0.0000
vt 0.3948 0.6662 0.0000
vt 0.3661 0.7019 0.0000
vt 0.3166 0.6898 0.0000
vt 0.3004 0.6433 0.0000
vt 0.3345 0.6433 0.0000
vt 0.3345 0.6898 0.0000
vt 0.2892 0.7139 0.0000
vt 0.2481 0.6891 0.0000
vt 0.2743 0.6662 0.0000
vt 0.3029 0.7019 0.0000
vt 0.2830 0.7507 0.0000
vt 0.2363 0.7593 0.0000
vt 0.2422 0.7242 0.0000
vt 0.2861 0.7323 0.0000
vt 0.3009 0.7831 0.0000
vt 0.2704 0.8210 0.0000
vt 0.2534 0.7901 0.0000
vt 0.2919 0.7669 0.0000
vt 0.3345 0.7959 0.0000
vt 0.3345 0.8454 0.0000
vt 0.3025 0.8332 0.0000
vt 0.3177 0.7895 0.0000
vt 0.3682 0.7831 0.0000
vt 0.3986 0.8210 0.0000
vt 0.3666 0.8332 0.0000
vt 0.3513 0.7895 0.0000
vt 0.3861 0.7507 0.0000
vt 0.4328 0.7593 0.0000
vt 0.4157 0.7901 0.0000
vt 0.3771 0.7669 0.0000
vt 0.0005 0.2808 0.0000
vt 0.0005 0.2551 0.0000
vt 0.9932 0.2551 0.0000
vt 0.9932 0.2808 0.0000
vt 0.0005 0.3254 0.0000
vt 0.0005 0.3031 0.0000
vt 0.9932 0.3031 0.0000
vt 0.9932 0.3254 0.0000
vt 0.0005 0.3760 0.0000
vt 0.0005 0.3507 0.0000
vt 0.9932 0.3507 0.0000
vt 0.9932 0.3760 0.0000
vt 0.0005 0.4154 0.0000
vt 0.0005 0.3957 0.0000
vt 0.9932 0.3957 0.0000
vt 0.9932 0.4154 0.0000
vt 0.0005 0.4669 0.0000
vt 0.0005 0.4411 0.0000
vt 0.9932 0.4411 0.0000
vt 0.9932 0.4669 0.0000
vt 0.0005 0.5063 0.0000
vt 0.0005 0.4866 0.0000
vt 0.9932 0.4866 0.0000
vt 0.9932 0.5063 0.0000
vt 0.0005 0.5577 0.0000
vt 0.0005 0.5320 0.0000
vt 0.9932 0.5320 0.0000
vt 0.9932 0.5577 0.0000
vt 0.0005 0.5971 0.0000
vt 0.0005 0.5774 0.0000
vt 0.9932 0.5774 0.0000
vt 0.9932 0.5971 0.0000
vt 0.0005 0.2294 0.0000
vt 0.0005 0.2097 0.0000
vt 0.9932 0.2097 0.0000
vt 0.9932 0.2294 0.0000
vt 0.4457 0.8812 0.0000
vt 0.4457 0.9644 0.0000
vt 0.0043 0.0005 0.0000
vt 0.9995 0.0005 0.0000
vt 0.0005 0.1900 0.0000
vt 0.9932 0.1900 0.0000
# 222 texture coords

o Cylinder002
g Cylinder002
s 1
f 1/1/1 2/2/1 3/3/2 
f 3/3/2 4/4/2 1/1/1 
f 5/5/3 6/6/3 7/7/3 
f 7/7/3 8/8/3 5/5/3 
f 9/9/4 10/10/4 11/11/5 
f 11/11/5 12/12/5 9/9/4 
f 13/13/6 14/14/6 15/15/6 
f 15/15/6 16/16/6 13/13/6 
f 17/17/7 18/18/7 19/19/8 
f 19/19/8 20/20/8 17/17/7 
f 21/21/9 22/22/9 23/23/7 
f 23/23/7 24/24/7 21/21/9 
f 25/25/10 26/26/10 27/27/9 
f 27/27/9 28/28/9 25/25/10 
f 29/29/11 30/30/11 31/31/12 
f 31/31/12 32/32/12 29/29/11 
f 33/33/2 34/34/2 35/35/11 
f 35/35/11 36/36/11 33/33/2 
s 2
f 2/37/13 37/38/13 38/39/14 
f 38/39/14 3/40/14 2/37/13 
f 6/41/15 39/42/15 40/43/16 
f 40/43/16 7/44/16 6/41/15 
f 10/45/17 41/46/17 42/47/18 
f 42/47/18 11/48/18 10/45/17 
f 14/49/19 43/50/19 44/51/20 
f 44/51/20 15/52/20 14/49/19 
f 18/53/21 45/54/21 46/55/22 
f 46/55/22 19/56/22 18/53/21 
f 22/57/23 47/58/23 48/59/24 
f 48/59/24 23/60/24 22/57/23 
f 26/61/25 49/62/25 50/63/26 
f 50/63/26 27/64/26 26/61/25 
f 30/65/27 51/66/27 52/67/28 
f 52/67/28 31/68/28 30/65/27 
f 34/69/29 53/70/29 54/71/30 
f 54/71/30 35/72/31 34/69/29 
s 1
f 37/73/7 55/74/7 56/75/7 
f 56/75/7 38/76/7 37/73/7 
f 39/77/10 57/78/10 58/79/9 
f 58/79/9 40/80/9 39/77/10 
f 41/81/12 59/82/12 60/83/10 
f 60/83/10 42/84/10 41/81/12 
f 43/85/11 61/86/11 62/87/12 
f 62/87/12 44/88/12 43/85/11 
f 45/89/2 63/90/2 64/91/2 
f 64/91/2 46/92/2 45/89/2 
f 47/93/3 65/94/3 66/95/1 
f 66/95/1 48/96/1 47/93/3 
f 49/97/5 67/98/5 68/99/5 
f 68/99/5 50/100/5 49/97/5 
f 51/101/4 69/102/4 70/103/4 
f 70/103/4 52/104/4 51/101/4 
f 53/105/8 71/106/8 72/107/6 
f 72/107/6 54/108/6 53/105/8 
s 2
f 55/109/32 73/110/32 74/111/33 
f 74/111/33 56/112/33 55/109/32 
f 57/113/34 75/114/34 76/115/35 
f 76/115/35 58/116/35 57/113/34 
f 59/117/36 77/118/36 78/119/37 
f 78/119/37 60/120/37 59/117/36 
f 61/121/30 79/122/30 80/123/38 
f 80/123/38 62/124/38 61/121/30 
f 63/125/14 81/126/14 82/127/29 
f 82/127/29 64/128/29 63/125/14 
f 65/129/16 83/130/16 84/131/13 
f 84/131/13 66/132/13 65/129/16 
f 67/133/18 85/134/18 86/135/15 
f 86/135/15 68/136/15 67/133/18 
f 69/137/20 87/138/20 88/139/17 
f 88/139/17 70/140/17 69/137/20 
f 71/141/39 89/142/39 90/143/19 
f 90/143/19 72/144/19 71/141/39 
s 1
f 76/145/40 91/146/40 92/147/40 
f 92/147/40 73/148/40 76/145/40 
f 78/149/40 93/150/40 94/151/40 
f 94/151/40 75/152/40 78/149/40 
f 80/153/41 95/154/41 96/155/41 
f 96/155/41 77/156/41 80/153/41 
f 82/157/41 97/158/41 98/159/41 
f 98/159/41 79/160/41 82/157/41 
f 84/161/42 99/162/42 100/163/41 
f 100/163/41 81/164/41 84/161/42 
f 86/165/42 101/166/42 102/167/42 
f 102/167/42 83/168/42 86/165/42 
f 88/169/43 103/170/43 104/171/43 
f 104/171/43 85/172/43 88/169/43 
f 90/173/43 105/174/43 106/175/43 
f 106/175/43 87/176/43 90/173/43 
f 74/177/40 107/178/40 108/179/43 
f 108/179/43 89/180/43 74/177/40 
s 2
f 8/181/16 1/182/13 92/183/13 
f 92/183/13 91/184/16 8/181/16 
f 12/185/18 5/186/15 94/187/15 
f 94/187/15 93/188/18 12/185/18 
f 16/189/20 9/190/17 96/191/17 
f 96/191/17 95/192/20 16/189/20 
f 20/193/22 13/194/44 98/195/44 
f 98/195/44 97/196/22 20/193/22 
f 24/197/24 17/198/21 100/199/21 
f 100/199/21 99/200/24 24/197/24 
f 28/201/26 21/202/23 102/203/23 
f 102/203/23 101/204/26 28/201/26 
f 32/205/28 25/206/25 104/207/25 
f 104/207/25 103/208/28 32/205/28 
f 36/209/30 29/210/27 106/211/27 
f 106/211/27 105/212/30 36/209/30 
f 4/213/14 33/214/29 108/215/29 
f 108/215/29 107/216/14 4/213/14 
s 1
f 1/1/1 8/8/3 7/7/3 
f 7/7/3 2/2/1 1/1/1 
f 5/5/3 12/12/5 11/11/5 
f 11/11/5 6/6/3 5/5/3 
f 9/9/4 16/16/6 15/15/6 
f 15/15/6 10/10/4 9/9/4 
f 13/13/6 20/20/8 19/19/8 
f 19/19/8 14/14/6 13/13/6 
f 17/17/7 24/24/7 23/23/7 
f 23/23/7 18/18/7 17/17/7 
f 21/21/9 28/28/9 27/27/9 
f 27/27/9 22/22/9 21/21/9 
f 25/25/10 32/32/12 31/31/12 
f 31/31/12 26/26/10 25/25/10 
f 29/29/11 36/36/11 35/35/11 
f 35/35/11 30/30/11 29/29/11 
f 33/33/2 4/4/2 3/3/2 
f 3/3/2 34/34/2 33/33/2 
s 2
f 7/44/16 40/43/16 37/38/13 
f 37/38/13 2/37/13 7/44/16 
f 11/48/18 42/47/18 39/42/15 
f 39/42/15 6/41/15 11/48/18 
f 15/52/20 44/51/20 41/46/17 
f 41/46/17 10/45/17 15/52/20 
f 19/56/22 46/55/22 43/50/19 
f 43/50/19 14/49/19 19/56/22 
f 23/60/24 48/59/24 45/54/21 
f 45/54/21 18/53/21 23/60/24 
f 27/64/26 50/63/26 47/58/23 
f 47/58/23 22/57/23 27/64/26 
f 31/68/28 52/67/28 49/62/25 
f 49/62/25 26/61/25 31/68/28 
f 35/217/31 54/218/30 51/66/27 
f 51/66/27 30/65/27 35/217/31 
f 3/40/14 38/39/14 53/70/29 
f 53/70/29 34/69/29 3/40/14 
s 1
f 37/73/7 40/80/9 58/79/9 
f 58/79/9 55/74/7 37/73/7 
f 39/77/10 42/84/10 60/83/10 
f 60/83/10 57/78/10 39/77/10 
f 41/81/12 44/88/12 62/87/12 
f 62/87/12 59/82/12 41/81/12 
f 43/85/11 46/92/2 64/91/2 
f 64/91/2 61/86/11 43/85/11 
f 45/89/2 48/96/1 66/95/1 
f 66/95/1 63/90/2 45/89/2 
f 47/93/3 50/100/5 68/99/5 
f 68/99/5 65/94/3 47/93/3 
f 49/97/5 52/104/4 70/103/4 
f 70/103/4 67/98/5 49/97/5 
f 51/101/4 54/108/6 72/107/6 
f 72/107/6 69/102/4 51/101/4 
f 53/105/8 38/76/7 56/75/7 
f 56/75/7 71/106/8 53/105/8 
s 2
f 58/116/35 76/115/35 73/110/32 
f 73/110/32 55/109/32 58/116/35 
f 60/120/37 78/119/37 75/114/34 
f 75/114/34 57/113/34 60/120/37 
f 62/219/38 80/220/38 77/118/36 
f 77/118/36 59/117/36 62/219/38 
f 64/128/29 82/127/29 79/122/30 
f 79/122/30 61/121/30 64/128/29 
f 66/132/13 84/131/13 81/126/14 
f 81/126/14 63/125/14 66/132/13 
f 68/136/15 86/135/15 83/130/16 
f 83/130/16 65/129/16 68/136/15 
f 70/140/17 88/139/17 85/134/18 
f 85/134/18 67/133/18 70/140/17 
f 72/144/19 90/143/19 87/138/20 
f 87/138/20 69/137/20 72/144/19 
f 56/112/33 74/111/33 89/142/39 
f 89/142/39 71/141/39 56/112/33 
s 1
f 92/147/40 107/178/40 74/177/40 
f 74/177/40 73/148/40 92/147/40 
f 94/151/40 91/146/40 76/145/40 
f 76/145/40 75/152/40 94/151/40 
f 96/155/41 93/150/40 78/149/40 
f 78/149/40 77/156/41 96/155/41 
f 98/159/41 95/154/41 80/153/41 
f 80/153/41 79/160/41 98/159/41 
f 100/163/41 97/158/41 82/157/41 
f 82/157/41 81/164/41 100/163/41 
f 102/167/42 99/162/42 84/161/42 
f 84/161/42 83/168/42 102/167/42 
f 104/171/43 101/166/42 86/165/42 
f 86/165/42 85/172/43 104/171/43 
f 106/175/43 103/170/43 88/169/43 
f 88/169/43 87/176/43 106/175/43 
f 108/179/43 105/174/43 90/173/43 
f 90/173/43 89/180/43 108/179/43 
s 2
f 4/213/14 107/216/14 92/183/13 
f 92/183/13 1/182/13 4/213/14 
f 8/181/16 91/184/16 94/187/15 
f 94/187/15 5/186/15 8/181/16 
f 12/185/18 93/188/18 96/191/17 
f 96/191/17 9/190/17 12/185/18 
f 16/189/20 95/192/20 98/195/44 
f 98/195/44 13/194/44 16/189/20 
f 20/193/22 97/196/22 100/199/21 
f 100/199/21 17/198/21 20/193/22 
f 24/197/24 99/200/24 102/203/23 
f 102/203/23 21/202/23 24/197/24 
f 28/201/26 101/204/26 104/207/25 
f 104/207/25 25/206/25 28/201/26 
f 32/205/28 103/208/28 106/211/27 
f 106/211/27 29/210/27 32/205/28 
f 36/221/30 105/222/30 108/215/29 
f 108/215/29 33/214/29 36/221/30 
# 216 faces

